<svg width="560.4065307617187px" height="121.39999999999999px" xmlns="http://www.w3.org/2000/svg" viewBox="-30.203265380859364 14.300000000000004 560.4065307617187 121.39999999999999" style="background: rgba(0, 0, 0, 0);" preserveAspectRatio="xMidYMid"><defs><filter id="editing-vr"><feFlood flood-color="#f00" flood-opacity="0.7" result="c1"></feFlood><feFlood flood-color="#00f" flood-opacity="0.7" result="c3"></feFlood><feComposite operator="in" in="c1" in2="SourceAlpha" result="text-c1"></feComposite><feComposite operator="in" in="c3" in2="SourceAlpha" result="text-c3"></feComposite><feOffset in="text-c1" dx="5" dy="-1" result="text1"></feOffset><feOffset in="text-c3" dx="-5" dy="1" result="text3"></feOffset><feBlend in="SourceGraphic" in2="text1" mode="multiply" result="text4"></feBlend><feBlend in="text4" in2="text3" mode="multiply"></feBlend></filter></defs><g filter="url(#editing-vr)"><g transform="translate(51.88639172911644, 97.39999961853027)"><path d="M24.96-4.80L24.96-4.80L24.96-4.80Q24.96-9.28 26.75-18.24L26.75-18.24L17.28-18.24L13.76 0L0.38 0L8.51-42.24L22.02-42.24L18.30-23.36L27.78-23.36L31.30-42.24L44.80-42.24L44.80-42.24Q43.90-37.50 42.75-32.19L42.75-32.19L40.58-21.76L40.58-21.76Q38.14-9.60 38.14-4.29L38.14-4.29L38.14-4.29Q38.14-2.11 38.85-0.90L38.85-0.90L38.85-0.90Q35.65 1.28 31.90 1.28L31.90 1.28L31.90 1.28Q28.16 1.28 26.56-0.51L26.56-0.51L26.56-0.51Q24.96-2.30 24.96-4.80ZM59.58 0L45.63 0L53.76-42.24L67.84-42.24L59.58 0ZM82.37 0L68.67 0L76.48-42.05L76.48-42.05Q82.82-42.75 92.06-42.75L92.06-42.75L92.06-42.75Q101.31-42.75 105.60-40.06L105.60-40.06L105.60-40.06Q109.89-37.38 109.89-31.97L109.89-31.97L109.89-31.97Q109.89-26.56 107.10-23.17L107.10-23.17L107.10-23.17Q104.32-19.78 99.52-18.69L99.52-18.69L99.52-18.69Q100.61-13.38 103.10-9.09L103.10-9.09L103.10-9.09Q105.41-5.06 108.10-3.78L108.10-3.78L108.10-3.78Q107.14-1.09 105.18 0.10L105.18 0.10L105.18 0.10Q103.23 1.28 100.45 1.28L100.45 1.28L100.45 1.28Q97.66 1.28 95.49-0.35L95.49-0.35L95.49-0.35Q93.31-1.98 91.58-4.99L91.58-4.99L91.58-4.99Q87.94-11.52 87.55-21.82L87.55-21.82L88-21.82L88-21.82Q92.74-21.95 95.10-24.42L95.10-24.42L95.10-24.42Q97.47-26.88 97.47-32.06L97.47-32.06L97.47-32.06Q97.47-38.53 92.03-38.78L92.03-38.78L90.62-38.78L90.62-38.78Q90.05-38.78 89.73-38.72L89.73-38.72L82.37 0ZM140.16-9.86L140.16-9.86L140.16-9.86Q141.38-8.32 141.38-5.82L141.38-5.82L141.38-5.82Q141.38-2.37 138.82-0.54L138.82-0.54L138.82-0.54Q136.26 1.28 132.22 1.28L132.22 1.28L132.22 1.28Q129.92 1.28 126.40 0.77L126.40 0.77L126.40 0.77Q119.49-0.32 117.38-0.32L117.38-0.32L117.38-0.32Q115.26-0.32 114.43-0.22L114.43-0.22L114.43-0.22Q113.60-0.13 112.26 0L112.26 0L120.13-42.24L147.71-42.24L147.71-42.24Q147.71-38.34 145.82-36.29L145.82-36.29L145.82-36.29Q143.94-34.24 140.22-34.24L140.22-34.24L140.22-34.24Q136.51-34.24 132.74-35.97L132.74-35.97L130.75-24.77L142.14-24.77L142.14-24.77Q142.14-21.38 140.48-19.49L140.48-19.49L140.48-19.49Q138.82-17.60 136.03-17.60L136.03-17.60L136.03-17.60Q133.25-17.60 131.52-18.24L131.52-18.24L131.52-18.24Q129.79-18.88 129.60-19.07L129.60-19.07L127.30-6.98L127.30-6.98Q128.83-6.78 131.71-6.78L131.71-6.78L131.71-6.78Q136.64-6.78 140.16-9.86ZM185.41-29.57L185.41-29.57L185.41-29.57Q186.37-31.49 186.37-33.28L186.37-33.28L186.37-33.28Q186.37-35.07 186.18-36.06L186.18-36.06L186.18-36.06Q185.98-37.06 185.54-37.82L185.54-37.82L185.54-37.82Q184.58-39.49 182.66-39.49L182.66-39.49L182.66-39.49Q180.29-39.49 178.37-37.76L178.37-37.76L178.37-37.76Q176.32-35.97 176.32-33.15L176.32-33.15L176.32-33.15Q176.32-31.36 177.57-29.98L177.57-29.98L177.57-29.98Q178.82-28.61 180.74-27.33L180.74-27.33L180.74-27.33Q182.66-26.05 184.83-24.77L184.83-24.77L184.83-24.77Q187.01-23.49 188.93-21.95L188.93-21.95L188.93-21.95Q193.34-18.43 193.34-13.70L193.34-13.70L193.34-13.70Q193.34-10.50 191.65-7.78L191.65-7.78L191.65-7.78Q189.95-5.06 187.14-3.07L187.14-3.07L187.14-3.07Q180.99 1.28 172.86 1.28L172.86 1.28L172.86 1.28Q166.27 1.28 162.88-0.86L162.88-0.86L162.88-0.86Q159.49-3.01 159.49-6.27L159.49-6.27L159.49-6.27Q159.49-12.10 164.03-13.57L164.03-13.57L164.03-13.57Q165.31-14.02 167.26-14.02L167.26-14.02L167.26-14.02Q169.22-14.02 171.46-13.18L171.46-13.18L171.46-13.18Q170.43-10.56 170.43-8.19L170.43-8.19L170.43-8.19Q170.43-3.07 174.08-3.07L174.08-3.07L174.08-3.07Q176.45-3.07 178.40-4.80L178.40-4.80L178.40-4.80Q180.35-6.53 180.35-8.48L180.35-8.48L180.35-8.48Q180.35-10.43 179.10-11.84L179.10-11.84L179.10-11.84Q177.86-13.25 176-14.37L176-14.37L176-14.37Q174.14-15.49 172-16.58L172-16.58L172-16.58Q169.86-17.66 168-19.20L168-19.20L168-19.20Q163.65-22.72 163.65-28.35L163.65-28.35L163.65-28.35Q163.65-32 165.44-34.85L165.44-34.85L165.44-34.85Q167.23-37.70 170.11-39.62L170.11-39.62L170.11-39.62Q175.87-43.52 182.94-43.52L182.94-43.52L182.94-43.52Q190.02-43.52 193.44-41.41L193.44-41.41L193.44-41.41Q196.86-39.30 196.86-35.71L196.86-35.71L196.86-35.71Q196.86-32.58 194.43-30.59L194.43-30.59L194.43-30.59Q192.32-28.93 189.76-28.93L189.76-28.93L189.76-28.93Q187.20-28.93 185.41-29.57ZM223.23-42.69L223.23-42.69L223.23-42.69Q238.91-42.69 238.91-31.62L238.91-31.62L238.91-31.62Q238.91-25.54 235.01-21.89L235.01-21.89L235.01-21.89Q231.17-18.24 224.45-18.24L224.45-18.24L224.45-18.24Q221.31-18.24 218.88-20.03L218.88-20.03L218.88-20.03Q217.73-20.80 216.96-21.82L216.96-21.82L216.96-21.82Q221.63-21.82 224.10-24.67L224.10-24.67L224.10-24.67Q226.56-27.52 226.56-33.09L226.56-33.09L226.56-33.09Q226.56-38.66 221.06-38.66L221.06-38.66L219.52-38.66L219.52-38.66Q219.14-38.66 218.82-38.59L218.82-38.59L211.46 0L197.57 0L205.44-41.92L205.44-41.92Q212.29-42.56 216.26-42.62L216.26-42.62L216.26-42.62Q220.22-42.69 223.23-42.69ZM263.10-4.80L263.10-4.80L263.10-4.80Q263.10-9.28 264.90-18.24L264.90-18.24L255.42-18.24L251.90 0L238.53 0L246.66-42.24L260.16-42.24L256.45-23.36L265.92-23.36L269.44-42.24L282.94-42.24L282.94-42.24Q282.05-37.50 280.90-32.19L280.90-32.19L278.72-21.76L278.72-21.76Q276.29-9.60 276.29-4.29L276.29-4.29L276.29-4.29Q276.29-2.11 276.99-0.90L276.99-0.90L276.99-0.90Q273.79 1.28 270.05 1.28L270.05 1.28L270.05 1.28Q266.30 1.28 264.70-0.51L264.70-0.51L264.70-0.51Q263.10-2.30 263.10-4.80ZM311.81-9.86L311.81-9.86L311.81-9.86Q313.02-8.32 313.02-5.82L313.02-5.82L313.02-5.82Q313.02-2.37 310.46-0.54L310.46-0.54L310.46-0.54Q307.90 1.28 303.87 1.28L303.87 1.28L303.87 1.28Q301.57 1.28 298.05 0.77L298.05 0.77L298.05 0.77Q291.14-0.32 289.02-0.32L289.02-0.32L289.02-0.32Q286.91-0.32 286.08-0.22L286.08-0.22L286.08-0.22Q285.25-0.13 283.90 0L283.90 0L291.78-42.24L319.36-42.24L319.36-42.24Q319.36-38.34 317.47-36.29L317.47-36.29L317.47-36.29Q315.58-34.24 311.87-34.24L311.87-34.24L311.87-34.24Q308.16-34.24 304.38-35.97L304.38-35.97L302.40-24.77L313.79-24.77L313.79-24.77Q313.79-21.38 312.13-19.49L312.13-19.49L312.13-19.49Q310.46-17.60 307.68-17.60L307.68-17.60L307.68-17.60Q304.90-17.60 303.17-18.24L303.17-18.24L303.17-18.24Q301.44-18.88 301.25-19.07L301.25-19.07L298.94-6.98L298.94-6.98Q300.48-6.78 303.36-6.78L303.36-6.78L303.36-6.78Q308.29-6.78 311.81-9.86ZM332.03 0L318.34 0L326.14-42.05L326.14-42.05Q332.48-42.75 341.73-42.75L341.73-42.75L341.73-42.75Q350.98-42.75 355.26-40.06L355.26-40.06L355.26-40.06Q359.55-37.38 359.55-31.97L359.55-31.97L359.55-31.97Q359.55-26.56 356.77-23.17L356.77-23.17L356.77-23.17Q353.98-19.78 349.18-18.69L349.18-18.69L349.18-18.69Q350.27-13.38 352.77-9.09L352.77-9.09L352.77-9.09Q355.07-5.06 357.76-3.78L357.76-3.78L357.76-3.78Q356.80-1.09 354.85 0.10L354.85 0.10L354.85 0.10Q352.90 1.28 350.11 1.28L350.11 1.28L350.11 1.28Q347.33 1.28 345.15-0.35L345.15-0.35L345.15-0.35Q342.98-1.98 341.25-4.99L341.25-4.99L341.25-4.99Q337.60-11.52 337.22-21.82L337.22-21.82L337.66-21.82L337.66-21.82Q342.40-21.95 344.77-24.42L344.77-24.42L344.77-24.42Q347.14-26.88 347.14-32.06L347.14-32.06L347.14-32.06Q347.14-38.53 341.70-38.78L341.70-38.78L340.29-38.78L340.29-38.78Q339.71-38.78 339.39-38.72L339.39-38.72L332.03 0ZM389.82-9.86L389.82-9.86L389.82-9.86Q391.04-8.32 391.04-5.82L391.04-5.82L391.04-5.82Q391.04-2.37 388.48-0.54L388.48-0.54L388.48-0.54Q385.92 1.28 381.89 1.28L381.89 1.28L381.89 1.28Q379.58 1.28 376.06 0.77L376.06 0.77L376.06 0.77Q369.15-0.32 367.04-0.32L367.04-0.32L367.04-0.32Q364.93-0.32 364.10-0.22L364.10-0.22L364.10-0.22Q363.26-0.13 361.92 0L361.92 0L369.79-42.24L397.38-42.24L397.38-42.24Q397.38-38.34 395.49-36.29L395.49-36.29L395.49-36.29Q393.60-34.24 389.89-34.24L389.89-34.24L389.89-34.24Q386.18-34.24 382.40-35.97L382.40-35.97L380.42-24.77L391.81-24.77L391.81-24.77Q391.81-21.38 390.14-19.49L390.14-19.49L390.14-19.49Q388.48-17.60 385.70-17.60L385.70-17.60L385.70-17.60Q382.91-17.60 381.18-18.24L381.18-18.24L381.18-18.24Q379.46-18.88 379.26-19.07L379.26-19.07L376.96-6.98L376.96-6.98Q378.50-6.78 381.38-6.78L381.38-6.78L381.38-6.78Q386.30-6.78 389.82-9.86Z" fill="#444"></path></g></g><style>text {
  font-size: 64px;
  font-family: Arial Black;
  dominant-baseline: central;
  text-anchor: middle;
}</style></svg>