<svg width="126.88437499999999px" height="121.39999999999999px" xmlns="http://www.w3.org/2000/svg" viewBox="186.5578125 14.300000000000004 126.88437499999999 121.39999999999999" style="background: rgba(0, 0, 0, 0);" preserveAspectRatio="xMidYMid"><defs><filter id="editing-vr"><feFlood flood-color="#f00" flood-opacity="0.7" result="c1"></feFlood><feFlood flood-color="#0000ff" flood-opacity="0.7" result="c3"></feFlood><feComposite operator="in" in="c1" in2="SourceAlpha" result="text-c1"></feComposite><feComposite operator="in" in="c3" in2="SourceAlpha" result="text-c3"></feComposite><feOffset in="text-c1" dx="5" dy="-1" result="text1"></feOffset><feOffset in="text-c3" dx="-5" dy="1" result="text3"></feOffset><feBlend in="SourceGraphic" in2="text1" mode="multiply" result="text4"></feBlend><feBlend in="text4" in2="text3" mode="multiply"></feBlend></filter></defs><g filter="url(#editing-vr)"><g transform="translate(209.7150101661682, 97.46500015258789)"><path d="M6.21-31.17L6.21-31.17L6.21-31.17Q4.03-32.83 4.03-36.38L4.03-36.38L4.03-36.38Q4.03-39.94 6.37-41.79L6.37-41.79L6.37-41.79Q8.70-43.65 12.74-43.65L12.74-43.65L12.74-43.65Q15.30-43.65 21.38-42.75L21.38-42.75L25.73-42.11L25.73-42.11Q27.90-41.86 30.18-41.86L30.18-41.86L30.18-41.86Q32.45-41.86 33.98-42.82L33.98-42.82L33.98-42.82Q36.29-40.77 36.29-37.82L36.29-37.82L36.29-37.82Q36.29-34.88 33.66-32.77L33.66-32.77L33.66-32.77Q30.98-30.53 27.52-30.53L27.52-30.53L27.52-30.53Q25.86-30.53 23.17-30.98L23.17-30.98L23.17-30.98Q20.03-21.12 20.03-14.27L20.03-14.27L20.03-14.27Q20.03-7.42 23.49-3.84L23.49-3.84L23.49-3.84Q21.89-0.96 19.52 0.16L19.52 0.16L19.52 0.16Q17.15 1.28 13.60 1.28L13.60 1.28L13.60 1.28Q10.05 1.28 7.84-0.67L7.84-0.67L7.84-0.67Q5.63-2.62 5.63-6.66L5.63-6.66L5.63-6.66Q5.63-11.33 8.19-19.01L8.19-19.01L8.19-19.01Q10.75-26.62 14.59-32.45L14.59-32.45L14.59-32.45Q12.74-32.64 10.82-32.64L10.82-32.64L10.82-32.64Q6.85-32.64 6.21-31.17ZM35.20-15.62L35.20-15.62L35.20-15.62Q35.20-27.71 41.47-35.33L41.47-35.33L41.47-35.33Q48.13-43.58 59.71-43.58L59.71-43.58L59.71-43.58Q68.10-43.58 72.32-39.52L72.32-39.52L72.32-39.52Q76.54-35.46 76.54-26.88L76.54-26.88L76.54-26.88Q76.54-13.82 69.89-6.21L69.89-6.21L69.89-6.21Q63.30 1.28 52.22 1.28L52.22 1.28L52.22 1.28Q43.58 1.28 39.39-3.04L39.39-3.04L39.39-3.04Q35.20-7.36 35.20-15.62ZM52.03-28.86L52.03-28.86L52.03-28.86Q49.15-17.34 49.15-8.26L49.15-8.26L49.15-8.26Q49.15-6.08 49.89-4.67L49.89-4.67L49.89-4.67Q50.62-3.26 52.58-3.26L52.58-3.26L52.58-3.26Q54.53-3.26 55.74-4.19L55.74-4.19L55.74-4.19Q56.96-5.12 57.92-7.23L57.92-7.23L57.92-7.23Q59.46-10.69 60.90-18.02L60.90-18.02L60.90-18.02Q62.34-25.34 62.46-28.38L62.46-28.38L62.46-28.38Q62.59-31.42 62.59-33.73L62.59-33.73L62.59-33.73Q62.59-36.03 61.89-37.50L61.89-37.50L61.89-37.50Q61.18-38.98 59.30-38.98L59.30-38.98L59.30-38.98Q57.41-38.98 56.13-37.82L56.13-37.82L56.13-37.82Q53.76-35.65 52.03-28.86Z" fill="#444"></path></g></g><style>text {
  font-size: 64px;
  font-family: Arial Black;
  dominant-baseline: central;
  text-anchor: middle;
}</style></svg>