<svg width="438.20791015624997px" height="121.39999999999999px" xmlns="http://www.w3.org/2000/svg" viewBox="30.896044921875017 14.300000000000004 438.20791015624997 121.39999999999999" style="background: rgba(0, 0, 0, 0);" preserveAspectRatio="xMidYMid"><defs><filter id="editing-vr"><feFlood flood-color="#f00" flood-opacity="0.7" result="c1"></feFlood><feFlood flood-color="#00f" flood-opacity="0.7" result="c3"></feFlood><feComposite operator="in" in="c1" in2="SourceAlpha" result="text-c1"></feComposite><feComposite operator="in" in="c3" in2="SourceAlpha" result="text-c3"></feComposite><feOffset in="text-c1" dx="5" dy="-1" result="text1"></feOffset><feOffset in="text-c3" dx="-5" dy="1" result="text3"></feOffset><feBlend in="SourceGraphic" in2="text1" mode="multiply" result="text4"></feBlend><feBlend in="text4" in2="text3" mode="multiply"></feBlend></filter></defs><g filter="url(#editing-vr)"><g transform="translate(95.6596245765686, 97.43000030517578)"><path d="M2.69-39.68L2.69-39.68L2.69-39.68Q3.58-41.47 5.54-42.46L5.54-42.46L5.54-42.46Q7.49-43.46 10.18-43.46L10.18-43.46L10.18-43.46Q14.40-43.46 16.93-40.42L16.93-40.42L16.93-40.42Q19.46-37.38 19.46-30.72L19.46-30.72L19.46-7.87L34.11-42.18L41.66-42.18L43.39-9.79L43.20-7.94L58.43-42.18L67.20-42.18L46.72 0L33.09 0L31.81-19.46L23.36 0L7.94 0L6.02-30.72L6.02-30.72Q5.82-34.18 4.90-36.45L4.90-36.45L4.90-36.45Q3.97-38.72 2.69-39.68ZM91.78-9.86L91.78-9.86L91.78-9.86Q92.99-8.32 92.99-5.82L92.99-5.82L92.99-5.82Q92.99-2.37 90.43-0.54L90.43-0.54L90.43-0.54Q87.87 1.28 83.84 1.28L83.84 1.28L83.84 1.28Q81.54 1.28 78.02 0.77L78.02 0.77L78.02 0.77Q71.10-0.32 68.99-0.32L68.99-0.32L68.99-0.32Q66.88-0.32 66.05-0.22L66.05-0.22L66.05-0.22Q65.22-0.13 63.87 0L63.87 0L71.74-42.24L99.33-42.24L99.33-42.24Q99.33-38.34 97.44-36.29L97.44-36.29L97.44-36.29Q95.55-34.24 91.84-34.24L91.84-34.24L91.84-34.24Q88.13-34.24 84.35-35.97L84.35-35.97L82.37-24.77L93.76-24.77L93.76-24.77Q93.76-21.38 92.10-19.49L92.10-19.49L92.10-19.49Q90.43-17.60 87.65-17.60L87.65-17.60L87.65-17.60Q84.86-17.60 83.14-18.24L83.14-18.24L83.14-18.24Q81.41-18.88 81.22-19.07L81.22-19.07L78.91-6.98L78.91-6.98Q80.45-6.78 83.33-6.78L83.33-6.78L83.33-6.78Q88.26-6.78 91.78-9.86ZM125.63-9.86L125.63-9.86L125.63-9.86Q126.85-8.32 126.85-5.34L126.85-5.34L126.85-5.34Q126.85-2.37 124.58-0.54L124.58-0.54L124.58-0.54Q122.30 1.28 118.34 1.28L118.34 1.28L118.34 1.28Q116.03 1.28 112.45 0.77L112.45 0.77L112.45 0.77Q105.41-0.32 103.39-0.32L103.39-0.32L103.39-0.32Q101.38-0.32 100.54-0.22L100.54-0.22L100.54-0.22Q99.71-0.13 98.37 0L98.37 0L106.11-42.24L120.13-42.24L113.73-7.04L113.73-7.04Q114.56-6.91 115.33-6.91L115.33-6.91L116.93-6.91L116.93-6.91Q122.30-6.91 125.63-9.86ZM163.90-13.25L163.90-13.25L163.90-13.25Q165.57-12.03 165.57-9.44L165.57-9.44L165.57-9.44Q165.57-6.85 164.45-5.02L164.45-5.02L164.45-5.02Q163.33-3.20 161.15-1.79L161.15-1.79L161.15-1.79Q156.48 1.22 148.32 1.22L148.32 1.22L148.32 1.22Q140.16 1.22 135.71-3.04L135.71-3.04L135.71-3.04Q131.26-7.30 131.26-14.85L131.26-14.85L131.26-14.85Q131.26-25.54 136.83-33.66L136.83-33.66L136.83-33.66Q141.06-39.68 148.61-42.24L148.61-42.24L148.61-42.24Q152.51-43.52 156.35-43.52L156.35-43.52L156.35-43.52Q160.19-43.52 162.56-43.01L162.56-43.01L162.56-43.01Q164.93-42.50 166.72-41.47L166.72-41.47L166.72-41.47Q170.62-39.23 170.62-35.65L170.62-35.65L170.62-35.65Q170.62-32.38 167.55-29.95L167.55-29.95L167.55-29.95Q164.74-27.78 162.43-27.78L162.43-27.78L162.43-27.78Q160.13-27.78 159.17-28.10L159.17-28.10L159.17-28.10Q159.42-30.40 159.42-31.90L159.42-31.90L159.42-31.90Q159.42-33.41 159.36-34.50L159.36-34.50L159.36-34.50Q159.30-35.58 158.98-36.61L158.98-36.61L158.98-36.61Q158.34-38.98 156.38-38.98L156.38-38.98L156.38-38.98Q154.43-38.98 152.48-37.15L152.48-37.15L152.48-37.15Q150.53-35.33 148.86-32.26L148.86-32.26L148.86-32.26Q145.09-25.28 145.09-17.02L145.09-17.02L145.09-17.02Q145.09-13.06 147.33-10.78L147.33-10.78L147.33-10.78Q149.57-8.51 154.37-8.51L154.37-8.51L154.37-8.51Q157.95-8.51 161.34-10.88L161.34-10.88L161.34-10.88Q162.82-11.90 163.90-13.25ZM171.84-15.62L171.84-15.62L171.84-15.62Q171.84-27.71 178.11-35.33L178.11-35.33L178.11-35.33Q184.77-43.58 196.35-43.58L196.35-43.58L196.35-43.58Q204.74-43.58 208.96-39.52L208.96-39.52L208.96-39.52Q213.18-35.46 213.18-26.88L213.18-26.88L213.18-26.88Q213.18-13.82 206.53-6.21L206.53-6.21L206.53-6.21Q199.94 1.28 188.86 1.28L188.86 1.28L188.86 1.28Q180.22 1.28 176.03-3.04L176.03-3.04L176.03-3.04Q171.84-7.36 171.84-15.62ZM188.67-28.86L188.67-28.86L188.67-28.86Q185.79-17.34 185.79-8.26L185.79-8.26L185.79-8.26Q185.79-6.08 186.53-4.67L186.53-4.67L186.53-4.67Q187.26-3.26 189.22-3.26L189.22-3.26L189.22-3.26Q191.17-3.26 192.38-4.19L192.38-4.19L192.38-4.19Q193.60-5.12 194.56-7.23L194.56-7.23L194.56-7.23Q196.10-10.69 197.54-18.02L197.54-18.02L197.54-18.02Q198.98-25.34 199.10-28.38L199.10-28.38L199.10-28.38Q199.23-31.42 199.23-33.73L199.23-33.73L199.23-33.73Q199.23-36.03 198.53-37.50L198.53-37.50L198.53-37.50Q197.82-38.98 195.94-38.98L195.94-38.98L195.94-38.98Q194.05-38.98 192.77-37.82L192.77-37.82L192.77-37.82Q190.40-35.65 188.67-28.86ZM221.76 0L214.40 0L225.98-42.24L239.36-42.24L242.30-18.11L254.21-42.24L265.41-42.24L266.56-10.62L266.56-10.62Q266.82-4.35 269.89-2.43L269.89-2.43L269.89-2.43Q269.18-1.15 267.14 0.06L267.14 0.06L267.14 0.06Q265.09 1.28 262.37 1.28L262.37 1.28L262.37 1.28Q259.65 1.28 258.05 0.51L258.05 0.51L258.05 0.51Q256.45-0.26 255.55-1.54L255.55-1.54L255.55-1.54Q253.95-3.84 253.95-8.26L253.95-8.26L253.95-28.03L241.34 0L233.41 0L228.93-28.74L221.76 0ZM299.97-9.86L299.97-9.86L299.97-9.86Q301.18-8.32 301.18-5.82L301.18-5.82L301.18-5.82Q301.18-2.37 298.62-0.54L298.62-0.54L298.62-0.54Q296.06 1.28 292.03 1.28L292.03 1.28L292.03 1.28Q289.73 1.28 286.21 0.77L286.21 0.77L286.21 0.77Q279.30-0.32 277.18-0.32L277.18-0.32L277.18-0.32Q275.07-0.32 274.24-0.22L274.24-0.22L274.24-0.22Q273.41-0.13 272.06 0L272.06 0L279.94-42.24L307.52-42.24L307.52-42.24Q307.52-38.34 305.63-36.29L305.63-36.29L305.63-36.29Q303.74-34.24 300.03-34.24L300.03-34.24L300.03-34.24Q296.32-34.24 292.54-35.97L292.54-35.97L290.56-24.77L301.95-24.77L301.95-24.77Q301.95-21.38 300.29-19.49L300.29-19.49L300.29-19.49Q298.62-17.60 295.84-17.60L295.84-17.60L295.84-17.60Q293.06-17.60 291.33-18.24L291.33-18.24L291.33-18.24Q289.60-18.88 289.41-19.07L289.41-19.07L287.10-6.98L287.10-6.98Q288.64-6.78 291.52-6.78L291.52-6.78L291.52-6.78Q296.45-6.78 299.97-9.86Z" fill="#444"></path></g></g><style>text {
  font-size: 64px;
  font-family: Arial Black;
  dominant-baseline: central;
  text-anchor: middle;
}</style></svg>