<?xml version="1.0" encoding="UTF-8" standalone="no"?>
<!-- Created with Inkscape (http://www.inkscape.org/) -->

<svg
   version="1.1"
   id="svg1"
   width="1329.5381"
   height="387.66733"
   viewBox="0 0 1329.5381 387.66734"
   sodipodi:docname="HS-Logo.png"
   inkscape:export-filename="/Users/mohandreytampon/Downloads/HS-Logo.svg"
   inkscape:export-xdpi="96"
   inkscape:export-ydpi="96"
   xmlns:inkscape="http://www.inkscape.org/namespaces/inkscape"
   xmlns:sodipodi="http://sodipodi.sourceforge.net/DTD/sodipodi-0.dtd"
   xmlns="http://www.w3.org/2000/svg"
   xmlns:svg="http://www.w3.org/2000/svg">
  <defs
     id="defs1" />
  <sodipodi:namedview
     id="namedview1"
     pagecolor="#ffffff"
     bordercolor="#000000"
     borderopacity="0.25"
     inkscape:showpageshadow="2"
     inkscape:pageopacity="0.0"
     inkscape:pagecheckerboard="0"
     inkscape:deskcolor="#d1d1d1">
    <inkscape:page
       x="0"
       y="0"
       width="1329.5381"
       height="387.66733"
       id="page2"
       margin="0"
       bleed="0" />
  </sodipodi:namedview>
  <g
     inkscape:groupmode="layer"
     inkscape:label="Image"
     id="g1"
     transform="translate(-609.90675,-618.70332)">
    <g
       id="g4"
       style="fill:#ff00ff"
       transform="translate(-197.71396,-9.4149506)">
      <path
         style="fill:#e82cc6;fill-opacity:1;fill-rule:nonzero"
         d="m 1264.6207,731.95566 v -55.16214 l 2.4019,-4.09861 c 10.6383,-18.15278 66.3824,-10.91737 76.6505,9.94897 16.0145,32.54398 -2.9247,69.90506 -36.1023,71.21847 l -13.9501,0.55224 v -9.1484 -9.14839 l 11.75,-0.002 c 21.0638,-0.003 23.25,-2.56001 23.25,-27.19599 0,-26.46682 -0.697,-27.14851 -28.25,-27.63037 l -18.75,-0.32747 v 53.07792 53.07791 h -8.5 -8.5 z M 807.62071,692.1178 v -62 h 8.5 8.5 v 25 25 h 33 33 v -25 -25 h 8.5 8.5 v 62 62 h -8.5 -8.5 v -28 -28 h -33 -33 v 28 28 h -8.5 -8.5 z m 116,17 v -45 h 9 9 v 45 45 h -9 -9 z m 32,9.46788 c 0,-38.97815 5.2e-4,-38.98207 6.11763,-45.94907 5.90883,-6.72978 11.33835,-8.49771 26.13237,-8.50904 l 12.74999,-0.01 v 8.5 8.5 h -11.07691 c -10.90958,0 -11.12109,0.0442 -14,2.92308 l -2.92308,2.92307 v 33.57693 33.57692 h -8.5 -8.5 z m 75.32639,34.48774 c -17.4703,-3.45441 -20.2764,-9.94411 -20.3029,-46.95562 -0.023,-32.03338 0.095,-32.65402 7.3171,-38.4289 l 3.8406,-3.0711 25.5493,-0.29893 25.5492,-0.29893 5.3181,2.60189 c 31.4527,15.38839 14.7793,51.49597 -23.7793,51.49597 h -14.8185 v -9 -9 h 15.5 c 17.4018,0 18.752,-0.49581 20.0396,-7.35916 1.8618,-9.92467 -2.0958,-11.60777 -27.3377,-11.6261 l -20.2981,-0.0147 0.2981,25.58979 c 0.3828,32.85866 -3.3586,29.41021 31.9089,29.41021 h 26.8892 v 9 9 l -25.75,-0.10957 c -14.1625,-0.0603 -27.6281,-0.48092 -29.9236,-0.93481 z m 119.6736,-7.87337 v -9.08225 l 36.25,-0.002 c 46.3748,-0.002 46.745,-0.1507 46.7484,-18.78057 0,-18.04849 -0.9398,-18.57466 -34.4498,-19.21788 l -26.0486,-0.5 -5.7144,-2.80615 c -23.2285,-11.40665 -23.2079,-49.99088 0.033,-61.40376 l 5.6814,-2.78964 35.75,-0.29711 35.75,-0.29711 v 8.54711 8.54711 l -31.25,0.0239 c -34.3197,0.0262 -37.9743,0.44648 -41.8917,4.81757 -5.0487,5.6335 -4.9618,18.77051 0.1623,24.51043 l 2.8103,3.14814 26.3346,0.52499 c 41.6993,0.83125 49.8345,6.86723 49.8345,36.97497 0,19.71614 -4.046,27.33837 -18,33.90984 l -5.5,2.59016 -38.25,0.33225 -38.25,0.33226 z m 210,-53.08225 v -62 h 9 9 v 16.93939 16.93939 l 18.75,0.31061 c 38.3451,0.63522 43.25,7.19565 43.25,57.84812 v 31.96249 h -8.5 -8.5 v -29.68428 c 0,-42.32974 -0.1724,-42.59371 -28.1735,-43.15001 l -16.8265,-0.33429 v 36.58429 36.58429 h -9 -9 z m 114.6536,60.95149 c -17.214,-2.88868 -20.9759,-12.16702 -20.4864,-50.52743 l 0.3328,-26.07594 2.684,-4.05291 c 8.411,-12.7008 61.494,-12.53753 72.6984,0.2236 19.3986,22.09377 3.1677,45.48119 -31.5639,45.48119 h -15.3185 v -9 -9 h 15.9274 15.9274 l 2.0726,-2.63486 c 2.3393,-2.97397 2.777,-9.86488 0.7908,-12.4518 -2.6907,-3.5045 -5.3707,-3.91334 -25.6525,-3.91334 h -20.0657 v 25.42742 25.42742 l 2.6349,2.07258 c 2.5142,1.97774 3.8413,2.07258 29,2.07258 h 26.3651 v 18 l -25.25,-0.11762 c -13.8875,-0.0647 -27.4309,-0.48359 -30.0964,-0.93089 z m 75.3562,-34.20149 c 0.014,-49.98772 2.7764,-54.67729 32.2402,-54.72804 l 12.75,-0.022 v 8.5 8.5 h -10.9442 c -10.1259,0 -11.1541,0.1804 -13.75,2.4124 l -2.8058,2.41239 -0.2878,34.08761 -0.2879,34.0876 h -8.4621 -8.4622 z m 75.3166,34.20562 c -17.4168,-3.44382 -20.5428,-11.1367 -20.129,-49.53557 l 0.3026,-28.07995 2.8079,-3.67928 c 11.7943,-15.45423 67.5385,-10.65059 76.1143,6.55899 11.0563,22.18702 -3.0367,39.01341 -33.1722,39.60612 l -17.25,0.33928 v -9.08261 -9.0826 h 15.3892 c 18.6824,0 20.1108,-0.63099 20.1108,-8.88387 0,-9.34189 -0.7351,-9.61613 -25.7762,-9.61613 h -21.2238 l -0.2919,22 c -0.4711,35.50625 -3.4119,32.5 31.7919,32.5 h 27 v 9 9 l -25.75,-0.10957 c -14.1625,-0.0603 -27.6281,-0.48092 -29.9236,-0.93481 z M 928.83262,648.91521 c -3.95856,-1.05262 -7.20281,-5.84481 -7.20817,-10.64741 -0.008,-7.54767 10.55011,-12.95251 16.77947,-8.5893 10.29111,7.20818 2.68474,22.49571 -9.5713,19.23671 z"
         id="path4"
         sodipodi:nodetypes="ccsssccccscccccccccccccccccccccccccccccccccccccccccssscccsscccccscsscccsscccssscsscccssccccscsccccccssscssscccccsccccsscccssccccccsscssscccccssscccssccsssscccsscccccssscssscccssscsscccssscssc" />
    </g>
  </g>
</svg>
