<?xml version="1.0" encoding="UTF-8" standalone="no"?>
<!-- Created with Inkscape (http://www.inkscape.org/) -->

<svg
   version="1.1"
   id="svg1"
   width="1329.5381"
   height="387.66733"
   viewBox="0 0 1329.5381 387.66733"
   sodipodi:docname="HS-Logo.png"
   xmlns:inkscape="http://www.inkscape.org/namespaces/inkscape"
   xmlns:sodipodi="http://sodipodi.sourceforge.net/DTD/sodipodi-0.dtd"
   xmlns="http://www.w3.org/2000/svg"
   xmlns:svg="http://www.w3.org/2000/svg">
  <defs
     id="defs1" />
  <sodipodi:namedview
     id="namedview1"
     pagecolor="#ffffff"
     bordercolor="#000000"
     borderopacity="0.25"
     inkscape:showpageshadow="2"
     inkscape:pageopacity="0.0"
     inkscape:pagecheckerboard="0"
     inkscape:deskcolor="#d1d1d1">
    <inkscape:page
       x="0"
       y="0"
       width="1329.5381"
       height="387.66733"
       id="page2"
       margin="0"
       bleed="0" />
  </sodipodi:namedview>
  <g
     inkscape:groupmode="layer"
     inkscape:label="Image"
     id="g1"
     transform="translate(-359.25333,-468.19726)">
    <g
       id="g4"
       style="fill:#ff00ff">
      <path
         style="fill:#e82cc6;fill-opacity:1;fill-rule:nonzero"
         d="M 539.62071,855.31084 C 409.70777,845.55372 325.64666,713.40041 372.24624,592.17976 432.95664,434.2523 653.27887,424.95705 727.42519,577.195 792.15921,710.10752 686.6503,866.35351 539.62071,855.31084 Z M 670.17538,704.08601 c 58.24793,-58.21846 65.44533,-65.75069 65.44533,-68.48986 0,-2.8838 -1.17016,-1.91305 -18.57805,15.41222 -15.75627,15.68148 -18.32177,17.88231 -16.8908,14.48986 0.92798,-2.2 2.48187,-6.18822 3.45307,-8.86271 1.42037,-3.91138 4.62704,-7.7287 16.39081,-19.51211 12.271,-12.2915 14.62497,-15.12807 14.62497,-17.62339 0,-2.78413 -0.86958,-2.11297 -13.61997,10.5121 -12.57984,12.4562 -13.57262,13.22837 -13,10.11111 0.34098,-1.85625 0.61997,-4.51612 0.61997,-5.91083 0,-1.89883 3.00622,-5.57664 11.96754,-14.64111 10.11206,-10.22844 11.87322,-12.46599 11.35917,-14.43172 -0.55705,-2.13016 -1.51854,-1.4191 -11.39611,8.42785 l -10.78774,10.75429 v -5.50262 -5.50262 l 9.42857,-9.38937 c 5.18571,-5.16415 9.42857,-10.1592 9.42857,-11.1001 0,-3.97004 -2.61469,-2.67312 -10.57402,5.24486 -4.60051,4.57662 -8.54076,8.1198 -8.75611,7.87374 -3.3764,-3.85779 -1.53755,-8.62583 6.35119,-16.46831 4.38842,-4.36268 7.97894,-8.47864 7.97894,-9.14658 0,-3.34893 -2.83493,-1.95306 -9.52011,4.6875 l -7.31413,7.26531 -1.25662,-4.19422 -1.25662,-4.19422 7.27929,-7.3282 c 6.06666,-6.10743 7.16083,-7.70141 6.56821,-9.56858 -0.66103,-2.08274 -1.22602,-1.72886 -8.02963,5.02934 l -7.31856,7.26972 -1.60614,-3.84401 -1.60613,-3.84402 6.56982,-6.62056 c 4.70005,-4.73634 6.38581,-7.1001 5.92324,-8.30555 -1.06458,-2.77425 -2.69943,-1.9839 -8.93893,4.32139 l -5.94371,6.00638 -1.86615,-3.6375 -1.86615,-3.6375 6.1459,-6.20101 c 5.47183,-5.52091 5.96957,-6.34734 4.53825,-7.53523 -1.39709,-1.15948 -2.36003,-0.58967 -7.35275,4.35096 l -5.74512,5.68517 -2.31264,-3.128 -2.31263,-3.12801 5.777,-5.83792 c 5.0195,-5.07242 5.60219,-6.04857 4.44377,-7.44437 -1.18749,-1.43084 -1.97758,-0.97202 -7.22751,4.1971 l -5.89428,5.80355 -2.51487,-2.89416 -2.51488,-2.89417 5.61051,-5.66966 c 5.37972,-5.43645 5.53483,-5.73814 3.77083,-7.33453 -1.74192,-1.57642 -2.12635,-1.37458 -7.23572,3.79906 l -5.39606,5.46394 -2.29874,-2.15956 c -3.16749,-2.97569 -2.99911,-3.53885 2.81973,-9.43089 4.7572,-4.81703 4.98037,-5.25676 3.16179,-6.23004 -1.66216,-0.88956 -2.69038,-0.3023 -6.83089,3.90141 -5.61795,5.70372 -5.33385,5.61391 -8.89565,2.8122 l -2.71599,-2.1364 5.08114,-5.14505 c 5.43039,-5.49869 6.06345,-6.99122 3.39903,-8.01366 -1.18511,-0.45476 -3.3272,0.97387 -7.25,4.83529 l -5.5679,5.48077 -2.82763,-2.08223 -2.82762,-2.08223 5.29269,-5.35926 c 5.00225,-5.06517 5.19846,-5.4535 3.57541,-7.07655 -1.62305,-1.62305 -2.03763,-1.40028 -7.5549,4.05942 l -5.83761,5.7767 -3.68567,-1.75757 -3.68566,-1.75757 6.05358,-6.10788 c 3.32947,-3.35933 5.74095,-6.42051 5.35883,-6.80263 -1.64945,-1.64945 -4.16038,-0.34152 -9.51306,4.9553 -5.76322,5.7031 -8.31066,6.23081 -12.79237,2.65002 -0.24421,-0.19512 2.39805,-3.22231 5.87169,-6.7271 5.81693,-5.8691 6.16146,-6.4549 4.36258,-7.41763 -1.67865,-0.89838 -2.90346,-0.0876 -8.71568,5.7695 l -6.76256,6.81478 -3.90601,-0.99145 c -5.02132,-1.27454 -5.05239,-1.16975 2.59399,-8.74817 6.92069,-6.85918 7.40582,-7.71517 4.91432,-8.67125 -1.08456,-0.41619 -3.89797,1.68838 -8.90253,6.65954 l -7.31686,7.26803 -4.7416,-0.71105 -4.74161,-0.71105 7.67466,-7.71993 c 4.22106,-4.24596 7.36092,-8.03366 6.97747,-8.41711 -2.06962,-2.06962 -5.45957,-0.14514 -12.86385,7.30282 l -7.95308,8 h -5.50371 -5.50371 l 9.32615,-9.36509 c 8.74549,-8.782 9.16939,-9.39506 6.80845,-9.84638 -2.12317,-0.40587 -4.05455,1.06133 -12.32478,9.36271 -7.7884,7.81774 -10.53184,9.95603 -13.32819,10.38825 -1.93662,0.29933 -4.87113,0.76032 -6.52113,1.02442 -2.65581,0.4251 -1.68249,-0.84172 8.48369,-11.04186 10.82882,-10.865 11.31433,-11.52205 8.5139,-11.52205 -2.45855,0 -5.12398,2.12938 -15.48369,12.36973 -12.20252,12.06195 -12.71148,12.43402 -20.45449,14.95302 l -7.9406,2.58329 14.6906,-14.71513 c 15.82667,-15.8531 16.07559,-16.19091 11.93072,-16.19091 -2.25323,0 -6.24594,3.50271 -21.75,19.08077 -10.44457,10.49443 -21.46513,20.79196 -24.49013,22.88341 -8.87549,6.1364 -18.47917,15.53425 -25.91935,25.36384 -3.92153,5.18093 -18.72115,20.91761 -34.01154,36.16503 -22.35252,22.28972 -27.06911,27.47344 -27.06911,29.75 0,4.24204 -0.008,4.24876 25.17071,-20.91365 l 23.68602,-23.6706 -2.76889,8.25248 -2.7689,8.25247 -21.15947,21.17665 c -14.95421,14.96635 -21.15947,21.83399 -21.15947,23.41813 0,3.61817 0.56739,3.15205 21.31247,-17.50853 l 19.83077,-19.75 -0.67188,6 -0.67188,6 -18.87807,19 c -16.28773,16.39293 -18.79293,19.32215 -18.25753,21.34781 0.56185,2.12578 2.35664,0.61361 18.97833,-15.98986 l 18.35779,-18.33768 v 5.5009 5.50089 l -17,16.97794 c -15.66821,15.64788 -18.23361,18.93306 -16.29705,20.86962 0.38662,0.38662 8.242,-6.82632 17.45639,-16.02876 10.97742,-10.96316 16.91291,-16.23337 17.21595,-15.28628 2.21063,6.90871 2.51045,6.42741 -14.91665,23.94542 -14.1098,14.18341 -16.32735,16.8295 -15.79455,18.84687 0.56277,2.1308 2.11789,0.85087 16.89194,-13.90283 l 16.27211,-16.24969 1.26268,4.21445 1.26268,4.21444 -15.7828,15.80596 c -14.78822,14.80991 -15.70642,15.94868 -14.57071,18.07077 1.16713,2.18081 1.79238,1.68594 16.85605,-13.34097 l 15.64396,-15.60579 1.62683,3.85887 1.62682,3.85886 -14.87682,14.85203 c -8.18226,8.16861 -14.87683,15.39359 -14.87683,16.05551 0,3.80255 3.50482,1.2942 16.95812,-12.13667 l 14.73727,-14.71271 2.12371,3.33545 2.1237,3.33545 -14.9913,15.03166 c -14.07511,14.113 -14.90153,15.15195 -13.52248,17 1.39839,1.87395 2.18395,1.25626 16.38126,-12.88074 l 14.91243,-14.84908 2.27726,3.19812 2.27727,3.19813 -14.76588,14.79053 c -13.45392,13.47639 -15.99219,17.01138 -12.21485,17.01138 0.64816,0 7.6227,-6.4125 15.49899,-14.25 l 14.32052,-14.25 2.42935,3 2.42935,3 -14.55039,14.57524 c -12.94168,12.96379 -14.37065,14.72442 -12.92466,15.92448 1.43192,1.1884 3.33717,-0.35915 15.98248,-12.98191 l 14.35676,-14.33114 2.98678,2.5132 2.98677,2.51321 -14.39483,14.36914 c -12.7954,12.77258 -14.22816,14.53582 -12.89483,15.86915 1.33333,1.33333 3.09522,-0.0924 15.85694,-12.83133 12.58957,-12.5671 14.59871,-14.20194 16.32085,-13.28028 5.07141,2.71414 4.82431,3.16313 -9.74102,17.70059 -14.1325,14.10546 -15.30995,15.72748 -12.26502,16.89593 1.25905,0.48315 5.43527,-3.05626 16.25,-13.77213 l 14.55545,-14.42239 3.34197,2.02488 3.34198,2.02489 -14.71924,14.74382 c -13.41167,13.43407 -15.94396,16.96465 -12.1678,16.96465 0.64838,0 7.75822,-6.56838 15.79965,-14.5964 l 14.62077,-14.5964 3.63524,1.86499 3.63524,1.86499 -14.99391,14.96891 c -15.88263,15.85615 -15.93257,15.91973 -13.29907,16.9303 1.26281,0.48459 5.58116,-3.22991 16.9414,-14.57241 l 15.24658,-15.22277 4.0586,1.33945 c 5.33034,1.75917 6.13392,0.47248 -10.94141,17.51934 -15.88941,15.86292 -15.93879,15.92578 -13.30467,16.93658 1.26499,0.48542 5.77065,-3.41574 17.75,-15.36861 l 16.05467,-16.01917 4.2308,1.25649 4.2308,1.25649 -15.9808,15.95739 c -16.9092,16.88442 -16.92517,16.90446 -14.28524,17.9175 1.26663,0.48605 5.90749,-3.55581 18.3453,-15.97748 l 16.64974,-16.62813 4.76418,0.71443 4.76418,0.71443 -17.24006,17.26121 c -15.61844,15.63759 -17.02736,17.32872 -14.97866,17.97895 1.95845,0.62158 4.62317,-1.64129 19.89072,-16.89117 l 17.62932,-17.60891 h 5.47972 5.47973 l -18.27658,18.29662 c -10.05211,10.06315 -17.96005,18.61315 -17.57319,19 2.35125,2.35125 5.88937,-0.3749 24.3951,-18.79662 16.50593,-16.431 20.05211,-19.50215 22.53193,-19.51365 1.61866,-0.008 4.06801,-0.28735 5.44301,-0.62186 1.71469,-0.41715 -3.861,5.79388 -17.75,19.77259 -21.60211,21.74163 -21.69924,21.86292 -17.50798,21.86292 2.23715,0 6.88623,-4.1204 25.25,-22.37865 13.49209,-13.41456 23.70967,-22.78297 25.50798,-23.38803 1.65,-0.55516 5.475,-1.9849 8.5,-3.17721 5.46569,-2.15431 5.33781,-2.00494 -20.5,23.94502 -23.93165,24.03553 -25.73711,26.08843 -22.69533,25.80586 2.89532,-0.26896 11.41142,-8.40963 68.75,-65.71921 z m 9.28094,8.57663 c 49.66517,-49.671 56.28965,-56.65283 55.99668,-59.01723 -0.29896,-2.41267 -6.2501,3.23821 -59.32911,56.33558 -53.11382,53.1322 -58.69766,59.01724 -55.99668,59.01724 2.63143,0 9.92286,-6.92353 59.32911,-56.33559 z m -34.25425,50.29093 c 7.14537,-2.66953 88.09414,-88.46808 85.77284,-90.91164 -0.54512,-0.57383 -92.3542,91.15115 -92.3542,92.26961 0,0.77951 1.92109,0.38312 6.58136,-1.35797 z m 28.28783,-12.40413 c 11.14335,-6.82515 50.3977,-48.61765 47.95724,-51.05812 -0.22911,-0.2291 -12.76821,11.94122 -27.86468,27.04518 -15.09646,15.10395 -27.06005,27.46173 -26.58574,27.46173 0.4743,0 3.39623,-1.55196 6.49318,-3.44879 z M 551.62071,476.17198 c 0,-0.18296 -1.4625,-0.0317 -3.25,0.3361 -5.24117,1.07849 -113.75,109.81013 -113.75,113.98357 0,2.70116 5.83041,-2.8296 58.5,-55.49342 32.175,-32.17147 58.5,-58.64329 58.5,-58.82625 z m -21.35586,4.13705 c -2.5022,-2.50219 -84.95661,76.00378 -90.20933,85.88954 -4.69385,8.83394 1.87031,2.98697 44.52556,-39.66071 25.2782,-25.27373 45.8359,-46.0767 45.68377,-46.22883 z m -28.08291,10.9171 c -3.76717,-3.76717 -53.15778,45.3919 -53.51604,53.26515 -0.0249,0.54619 12.08762,-11.13351 26.91661,-25.95487 14.82898,-14.82135 26.79873,-27.11098 26.59943,-27.31028 z m 762.43876,204.60996 v -55.16214 l 2.4019,-4.09861 c 10.6383,-18.15278 66.3824,-10.91737 76.6505,9.94897 16.0145,32.54398 -2.9247,69.90506 -36.1023,71.21847 l -13.9501,0.55224 v -9.1484 -9.14839 l 11.75,-0.002 c 21.0638,-0.003 23.25,-2.56001 23.25,-27.19599 0,-26.46682 -0.697,-27.14851 -28.25,-27.63037 l -18.75,-0.32747 v 53.07792 53.07791 h -8.5 -8.5 z M 807.62071,655.99823 v -62 h 8.5 8.5 v 25 25 h 33 33 v -25 -25 h 8.5 8.5 v 62 62 h -8.5 -8.5 v -28 -28 h -33 -33 v 28 28 h -8.5 -8.5 z m 116,17 v -45 h 9 9 v 45 45 h -9 -9 z m 32,9.46788 c 0,-38.97815 5.2e-4,-38.98207 6.11763,-45.94907 5.90883,-6.72978 11.33835,-8.49771 26.13237,-8.50904 l 12.74999,-0.01 v 8.5 8.5 h -11.07691 c -10.90958,0 -11.12109,0.0442 -14,2.92308 l -2.92308,2.92307 v 33.57693 33.57692 h -8.5 -8.5 z m 75.32639,34.48774 c -17.4703,-3.45441 -20.2764,-9.94411 -20.3029,-46.95562 -0.023,-32.03338 0.095,-32.65402 7.3171,-38.4289 l 3.8406,-3.0711 25.5493,-0.29893 25.5492,-0.29893 5.3181,2.60189 c 31.4527,15.38839 14.7793,51.49597 -23.7793,51.49597 h -14.8185 v -9 -9 h 15.5 c 17.4018,0 18.752,-0.49581 20.0396,-7.35916 1.8618,-9.92467 -2.0958,-11.60777 -27.3377,-11.6261 l -20.2981,-0.0147 0.2981,25.58979 c 0.3828,32.85866 -3.3586,29.41021 31.9089,29.41021 h 26.8892 v 9 9 l -25.75,-0.10957 c -14.1625,-0.0603 -27.6281,-0.48092 -29.9236,-0.93481 z m 119.6736,-7.87337 v -9.08225 l 36.25,-0.002 c 46.3748,-0.002 46.745,-0.1507 46.7484,-18.78057 0,-18.04849 -0.9398,-18.57466 -34.4498,-19.21788 l -26.0486,-0.5 -5.7144,-2.80615 c -23.2285,-11.40665 -23.2079,-49.99088 0.033,-61.40376 l 5.6814,-2.78964 35.75,-0.29711 35.75,-0.29711 v 8.54711 8.54711 l -31.25,0.0239 c -34.3197,0.0262 -37.9743,0.44648 -41.8917,4.81757 -5.0487,5.6335 -4.9618,18.77051 0.1623,24.51043 l 2.8103,3.14814 26.3346,0.52499 c 41.6993,0.83125 49.8345,6.86723 49.8345,36.97497 0,19.71614 -4.046,27.33837 -18,33.90984 l -5.5,2.59016 -38.25,0.33225 -38.25,0.33226 z m 210,-53.08225 v -62 h 9 9 v 16.93939 16.93939 l 18.75,0.31061 c 38.3451,0.63522 43.25,7.19565 43.25,57.84812 v 31.96249 h -8.5 -8.5 v -29.68428 c 0,-42.32974 -0.1724,-42.59371 -28.1735,-43.15001 l -16.8265,-0.33429 v 36.58429 36.58429 h -9 -9 z m 114.6536,60.95149 c -17.214,-2.88868 -20.9759,-12.16702 -20.4864,-50.52743 l 0.3328,-26.07594 2.684,-4.05291 c 8.411,-12.7008 61.494,-12.53753 72.6984,0.2236 19.3986,22.09377 3.1677,45.48119 -31.5639,45.48119 h -15.3185 v -9 -9 h 15.9274 15.9274 l 2.0726,-2.63486 c 2.3393,-2.97397 2.777,-9.86488 0.7908,-12.4518 -2.6907,-3.5045 -5.3707,-3.91334 -25.6525,-3.91334 h -20.0657 v 25.42742 25.42742 l 2.6349,2.07258 c 2.5142,1.97774 3.8413,2.07258 29,2.07258 h 26.3651 v 18 l -25.25,-0.11762 c -13.8875,-0.0647 -27.4309,-0.48359 -30.0964,-0.93089 z m 75.3562,-34.20149 c 0.014,-49.98772 2.7764,-54.67729 32.2402,-54.72804 l 12.75,-0.022 v 8.5 8.5 h -10.9442 c -10.1259,0 -11.1541,0.1804 -13.75,2.4124 l -2.8058,2.41239 -0.2878,34.08761 -0.2879,34.0876 h -8.4621 -8.4622 z m 75.3166,34.20562 c -17.4168,-3.44382 -20.5428,-11.1367 -20.129,-49.53557 l 0.3026,-28.07995 2.8079,-3.67928 c 11.7943,-15.45423 67.5385,-10.65059 76.1143,6.55899 11.0563,22.18702 -3.0367,39.01341 -33.1722,39.60612 l -17.25,0.33928 v -9.08261 -9.0826 h 15.3892 c 18.6824,0 20.1108,-0.63099 20.1108,-8.88387 0,-9.34189 -0.7351,-9.61613 -25.7762,-9.61613 h -21.2238 l -0.2919,22 c -0.4711,35.50625 -3.4119,32.5 31.7919,32.5 h 27 v 9 9 l -25.75,-0.10957 c -14.1625,-0.0603 -27.6281,-0.48092 -29.9236,-0.93481 z M 928.83262,612.79564 c -3.95856,-1.05262 -7.20281,-5.84481 -7.20817,-10.64741 -0.008,-7.54767 10.55011,-12.95251 16.77947,-8.5893 10.29111,7.20818 2.68474,22.49571 -9.5713,19.23671 z"
         id="path4"
         sodipodi:nodetypes="ssssssssssssssssscccssssssscccssscccssscccssscccssscccssscssssscssscccssscccssssssscsssscccssscccssssssssscsssssssscccssscccssscccssssssscccssscccssscccssscccssscccssscccssssssscccssscccssscsssscccssscccssscccssscssssssssssssssssssssssssssssssssssssccsssccccscccccccccccccccccccccccccccccccccccccccccssscccsscccccsssscccsscccssscsscccssccccscsccccccssscsssccccccccccsscccssccccccsscssscccccssscccssccsssscccsscccccssscssscccssscsscccssscss" />
    </g>
  </g>
</svg>
