<svg xmlns="http://www.w3.org/2000/svg" xml:space="preserve" width="16" height="16" data-version="2">
    <path fill="#e82cc6" d="M2.26 10.37V3.43h1.03v2.81h3.6V3.43h1.03v6.94H6.89v-3.1h-3.6v3.1zm5.92-4.75v-.51q0-.47.23-.85t.62-.61q.4-.22.87-.22h3.59v1.02H9.9q-.28 0-.49.2-.2.2-.2.49v.47q0 .26.2.45.21.18.49.18h2.21q.48 0 .87.23t.62.61q.24.39.24.85v.76q0 .46-.24.84-.23.39-.62.61-.39.23-.87.23H8.18V9.34h3.93q.29 0 .49-.19.21-.2.21-.47v-.75q0-.27-.21-.46-.2-.2-.49-.2H9.9q-.47 0-.87-.22-.39-.22-.62-.6-.23-.38-.23-.83" paint-order="stroke"/>
</svg>
